# xmcd
#
# Track frame offsets:
#	150
#	16010
#	29305
#	44868
#	65289
#	78530
#	91879
#	109547
#	128997
#	147205
#	159636
#	175900
#	191139
#	208348
#	219538
#	233130
#	248612
#	266820
#	284083
#	300482
#
# Disc length: 4198 seconds
#
# Revision: 1
# Processed by: cddbd v1.5.1PL0 Copyright (c) Steve Scherf et al.
# Submitted via: EasyCDDAExtractor 7.0.5.1
#
DISCID=26106414
DTITLE=Miltinho Rodrigues - As Vinte Mais
DYEAR=2004
DGENRE=Pop
TTITLE0=Meu Martírio
TTITLE1=Pensando em Ti
TTITLE2=Quando a Gente Gosta de Alguém
TTITLE3=Meus Tempos de Criança
TTITLE4=Parabéns Querida
TTITLE5=Dama de Vermelho
TTITLE6=Crucifixo de Pedra
TTITLE7=Devolva a Passagem
TTITLE8=Jamais Terei Ilusão
TTITLE9=A Noiva do meu Bairro
TTITLE10=Tome mais um Copo de Cerveja
TTITLE11=Meus Dias Felizes
TTITLE12=Minha Proposta
TTITLE13=Você Acabou com minha Juventude
TTITLE14=Pra que me serve esta Vida
TTITLE15=Me pisou de mansinho
TTITLE16=Amada Minha
TTITLE17=Ave Triste
TTITLE18=Juramento de Amor
TTITLE19=Feitiço de Amor
EXTD=
EXTT0=
EXTT1=
EXTT2=
EXTT3=
EXTT4=
EXTT5=
EXTT6=
EXTT7=
EXTT8=
EXTT9=
EXTT10=
EXTT11=
EXTT12=
EXTT13=
EXTT14=
EXTT15=
EXTT16=
EXTT17=
EXTT18=
EXTT19=
PLAYORDER=
